<svg xmlns="http://www.w3.org/2000/svg" width="18" height="12" viewBox="0 0 18 12"><path d="M14.011,12A4.021,4.021,0,0,1,9.818,7.618,4.168,4.168,0,0,1,14.011,3.2a3.689,3.689,0,0,1,2.958,1.338A5.017,5.017,0,0,1,18,7.728c0,.149-.01.3-.018.421v.008H12.07a2.219,2.219,0,0,0,.519,1.576,1.964,1.964,0,0,0,1.492.549,1.849,1.849,0,0,0,1.779-1.09h1.986A3.663,3.663,0,0,1,14.011,12Zm-.069-7.2a1.586,1.586,0,0,0-1.67,1.6h3.273A1.515,1.515,0,0,0,13.942,4.8ZM5.685,12H0V0H5.53A4.806,4.806,0,0,1,8.158.59,2.633,2.633,0,0,1,9.279,2.973a2.567,2.567,0,0,1-1.6,2.506A2.9,2.9,0,0,1,9.818,8.516a3.158,3.158,0,0,1-1.267,2.656A4.85,4.85,0,0,1,5.685,12ZM2.454,6.4V9.6h2.9c1.332,0,2.007-.519,2.007-1.542,0-1.1-.656-1.659-1.951-1.659Zm0-4.8V4.8H5.009c.7,0,1.536-.283,1.536-1.633,0-1.054-.565-1.567-1.727-1.567Zm13.909.8h-4.91V.8h4.91V2.4Z" fill="#2e2e2e"/></svg>