<svg xmlns="http://www.w3.org/2000/svg" width="16" height="16" viewBox="0 0 16 16"><path d="M8,16a8,8,0,1,1,8-8A8.009,8.009,0,0,1,8,16ZM9.212,9.119A9.635,9.635,0,0,0,3.806,13.4a6.824,6.824,0,0,0,6.863.9A28.286,28.286,0,0,0,9.212,9.119Zm2.7-.426a9.021,9.021,0,0,0-1.422.11,29.75,29.75,0,0,1,1.327,4.872A6.861,6.861,0,0,0,14.747,9.1,9.886,9.886,0,0,0,11.912,8.693ZM1.17,7.8v.018c0,.066,0,.129,0,.191a6.818,6.818,0,0,0,1.757,4.569A10.611,10.611,0,0,1,8.747,7.988c-.165-.373-.351-.763-.554-1.159a25.355,25.355,0,0,1-6.8.974Zm10.476-.168a16.686,16.686,0,0,1,3.185.313,6.834,6.834,0,0,0-1.541-4.257A9.2,9.2,0,0,1,9.473,6.384c.215.439.389.828.6,1.342A12.411,12.411,0,0,1,11.646,7.633ZM5.095,1.826A6.876,6.876,0,0,0,1.311,6.611h.124a25.532,25.532,0,0,0,6.193-.833A43.84,43.84,0,0,0,5.095,1.826ZM8,1.176a6.834,6.834,0,0,0-1.6.191l0,0a36.881,36.881,0,0,1,2.546,4A7.732,7.732,0,0,0,12.53,2.9,6.82,6.82,0,0,0,8,1.176Z" fill="#2e2e2e"/></svg>