<svg xmlns="http://www.w3.org/2000/svg" xmlns:xlink="http://www.w3.org/1999/xlink" width="15" height="12" viewBox="0 0 15 12"><defs><clipPath id="a"><rect width="15" height="12" fill="none"/></clipPath></defs><g clip-path="url(#a)"><g transform="translate(-1 -110)"><path d="M13.458,2.991c.01.131.01.263.01.394A8.618,8.618,0,0,1,4.721,12,8.784,8.784,0,0,1,0,10.641a6.456,6.456,0,0,0,.742.037A6.217,6.217,0,0,0,4.559,9.384a3.074,3.074,0,0,1-2.874-2.1,3.935,3.935,0,0,0,.581.047,3.3,3.3,0,0,0,.809-.1A3.04,3.04,0,0,1,.609,4.256V4.219A3.132,3.132,0,0,0,2,4.6,3.014,3.014,0,0,1,.628,2.081,2.971,2.971,0,0,1,1.047.553,8.783,8.783,0,0,0,7.386,3.722a3.369,3.369,0,0,1-.076-.694A3.05,3.05,0,0,1,10.384,0,3.089,3.089,0,0,1,12.63.956,6.109,6.109,0,0,0,14.581.225,3.029,3.029,0,0,1,13.23,1.894,6.237,6.237,0,0,0,15,1.425,6.555,6.555,0,0,1,13.458,2.991Z" transform="translate(1 110)" fill="#2e2e2e"/></g></g></svg>